# xmcd
#
# Track frame offsets:
#	150
#	17137
#	26956
#	42222
#	58128
#	86711
#	108616
#	116956
#	142815
#
# Disc length: 2325 seconds
#
# Revision: 0
# Processed by: cddbd v1.5.2PL0 Copyright (c) Steve Scherf et al.
# Submitted via: EZCDAudioConverter 3.1.4.1
#
DISCID=7f091309
DTITLE=The Mentulls - Time Flies
DYEAR=2012
DGENRE=Blues
TTITLE0=Time Flies
TTITLE1=Blues In C
TTITLE2=Motorway Of Madness
TTITLE3=I Don't Trust
TTITLE4=Sale Of Disbelief
TTITLE5=InstruMentull
TTITLE6=The Track With No Name
TTITLE7=What It Is
TTITLE8=After The Rain
EXTD=
EXTT0=
EXTT1=
EXTT2=
EXTT3=
EXTT4=
EXTT5=
EXTT6=
EXTT7=
EXTT8=
PLAYORDER=
